# xmcd
#
# Track frame offsets: 
#        150
#        11416
#        25058
#        35781
#        49711
#        62380
#        75723
#        89047
#        101864
#        114145
#        127210
#        140896
#        155020
#        168605
#        181333
#        193883
#
# Disc length: 2765 seconds
#
# Revision: 0
# Processed by: cddbd v1.5.2PL0 Copyright (c) Steve Scherf et al.
# Submitted via: ExactAudioCopyFreeDBPlugin 1.0
#
DISCID=e30acb10
DTITLE=B.B. King - Best of RPM and Kent Recordings [CD 1]
DYEAR=2011
DGENRE=Blues
TTITLE0=She's Dynamite
TTITLE1=3 O'Clock BLues
TTITLE2=Fine Lookin' Woman
TTITLE3=You Know I Love You
TTITLE4=Boogie Woogie Woman
TTITLE5=Story From My Heart and Soul
TTITLE6=Woke Up This Morning
TTITLE7=Please Love Me
TTITLE8=Please Hurry Home
TTITLE9=When My Heart Beats Like a Hammer
TTITLE10=You Upset Me Baby
TTITLE11=Whole Lotta Love
TTITLE12=Sneakin' Around
TTITLE13=Every Day I Have the Blues
TTITLE14=Ten Loving Years
TTITLE15=Crying Won't Help You
EXTD=
EXTT0=
EXTT1=
EXTT2=
EXTT3=
EXTT4=
EXTT5=
EXTT6=
EXTT7=
EXTT8=
EXTT9=
EXTT10=
EXTT11=
EXTT12=
EXTT13=
EXTT14=
EXTT15=
PLAYORDER=
